<?xml version="1.0" standalone="no"?>
<!DOCTYPE svg PUBLIC "-//W3C//DTD SVG 20010904//EN"
 "http://www.w3.org/TR/2001/REC-SVG-20010904/DTD/svg10.dtd">
<svg version="1.0" xmlns="http://www.w3.org/2000/svg"
 width="768.000000pt" height="768.000000pt" viewBox="0 0 768.000000 768.000000"
 preserveAspectRatio="xMidYMid meet">

<g transform="translate(0.000000,768.000000) scale(0.100000,-0.100000)"
fill="#000000" stroke="none">
<path d="M3570 7419 c-659 -50 -1279 -272 -1807 -647 -490 -348 -878 -803
-1137 -1337 -97 -200 -152 -336 -200 -495 -14 -47 -30 -98 -35 -115 -51 -165
-102 -452 -121 -689 -44 -556 55 -1177 266 -1661 296 -677 722 -1191 1319
-1592 218 -146 563 -316 820 -402 233 -79 527 -143 790 -173 160 -18 598 -15
762 5 829 104 1547 451 2124 1027 324 324 564 681 763 1135 136 312 235 725
266 1110 32 394 -19 911 -121 1240 -5 17 -21 68 -35 115 -105 350 -327 779
-557 1080 -271 354 -606 655 -984 887 -282 173 -629 320 -943 402 -392 101
-795 139 -1170 110z m705 -258 c397 -62 684 -150 1020 -316 257 -127 426 -235
666 -430 93 -75 361 -342 417 -415 23 -30 60 -77 82 -105 36 -46 86 -116 168
-235 55 -82 111 -182 187 -336 136 -278 229 -558 285 -859 12 -66 25 -139 30
-162 7 -38 5 -43 -14 -49 -11 -3 -67 -28 -122 -55 -176 -83 -293 -226 -356
-429 -22 -75 -22 -75 -28 -926 l-5 -851 -44 -64 c-50 -72 -77 -106 -138 -179
-24 -28 -43 -55 -43 -60 0 -13 -357 -370 -405 -405 -22 -16 -59 -45 -82 -65
-274 -232 -704 -458 -1104 -578 -326 -97 -545 -132 -891 -139 -360 -8 -630 21
-928 100 l-125 34 -3 1044 c-2 922 -1 1052 13 1116 40 179 141 294 311 354 91
31 260 51 382 43 100 -7 104 -8 114 -33 60 -147 132 -242 234 -307 204 -131
468 -99 646 78 205 205 210 508 13 725 -62 68 -136 115 -237 150 -63 21 -85
24 -163 20 -146 -7 -261 -61 -366 -170 -54 -56 -114 -162 -124 -221 l-8 -38
-101 6 c-116 8 -263 -5 -378 -34 -293 -73 -491 -290 -537 -588 -7 -48 -11
-397 -11 -1066 0 -790 -3 -996 -12 -996 -22 0 -118 39 -240 97 l-118 56 0
1737 c0 1698 0 1739 20 1814 44 174 140 279 306 337 118 41 211 44 1142 41
l883 -3 11 -27 c61 -149 132 -243 234 -308 204 -131 468 -99 646 78 205 205
210 508 13 725 -62 68 -136 115 -237 150 -63 21 -85 24 -163 20 -146 -7 -261
-61 -366 -170 -53 -55 -114 -162 -124 -220 l-7 -38 -937 2 c-907 1 -939 0
-1033 -20 -174 -36 -295 -99 -399 -208 -101 -105 -164 -235 -189 -393 -6 -42
-10 -641 -10 -1727 0 -915 -2 -1663 -5 -1663 -6 0 -124 77 -186 122 -284 203
-587 507 -772 773 -125 180 -195 297 -285 479 -98 200 -213 517 -190 525 6 2
46 21 89 43 152 76 272 228 331 418 l23 75 5 1165 5 1165 30 40 c241 322 480
558 787 778 426 304 954 509 1498 581 175 23 185 24 480 21 221 -2 303 -7 415
-24z m-3417 -2826 c-3 -781 -6 -876 -21 -927 -26 -89 -56 -145 -108 -202 -49
-54 -165 -125 -179 -110 -11 14 -48 224 -66 379 -20 173 -22 514 -5 690 38
393 158 819 320 1139 l56 111 3 -105 c2 -58 1 -496 0 -975z m4417 856 c72 -36
107 -73 143 -149 22 -48 24 -64 20 -145 -5 -105 -17 -136 -85 -208 -140 -150
-420 -104 -504 83 -34 76 -34 213 -1 278 85 163 263 221 427 141z m1884 -1293
c5 -349 -50 -730 -151 -1047 -50 -157 -108 -311 -152 -401 l-41 -85 -3 65 c-2
36 -2 328 1 650 4 629 4 629 58 745 35 74 111 150 191 190 39 19 76 35 83 35
8 0 12 -43 14 -152z m-2844 -317 c72 -36 107 -73 143 -149 22 -48 24 -64 20
-145 -5 -105 -17 -136 -85 -208 -140 -150 -420 -104 -504 83 -34 76 -34 213
-1 278 85 163 263 221 427 141z"/>
</g>
</svg>
